HIERARCHY
ROOT Hips
{
	OFFSET 0.00000 0.00000 0.00000
	CHANNELS 6 Xposition Yposition Zposition Zrotation Yrotation Xrotation 
	JOINT LHipJoint
	{
		OFFSET 0 0 0
		CHANNELS 3 Zrotation Yrotation Xrotation
		JOINT LeftUpLeg
		{
			OFFSET 1.84395 -1.68683 0.74144
			CHANNELS 3 Zrotation Yrotation Xrotation
			JOINT LeftLeg
			{
				OFFSET 2.27037 -6.23779 0.00000
				CHANNELS 3 Zrotation Yrotation Xrotation
				JOINT LeftFoot
				{
					OFFSET 2.56918 -7.05877 0.00000
					CHANNELS 3 Zrotation Yrotation Xrotation
					JOINT LeftToeBase
					{
						OFFSET 0.22276 -0.61202 1.71784
						CHANNELS 3 Zrotation Yrotation Xrotation
						End Site
						{
							OFFSET 0.00000 -0.00000 0.91613
						}
					}
				}
			}
		}
	}
	JOINT RHipJoint
	{
		OFFSET 0 0 0
		CHANNELS 3 Zrotation Yrotation Xrotation
		JOINT RightUpLeg
		{
			OFFSET -1.76833 -1.68684 0.74144
			CHANNELS 3 Zrotation Yrotation Xrotation
			JOINT RightLeg
			{
				OFFSET -2.49360 -6.85110 0.00000
				CHANNELS 3 Zrotation Yrotation Xrotation
				JOINT RightFoot
				{
					OFFSET -2.55538 -7.02085 0.00000
					CHANNELS 3 Zrotation Yrotation Xrotation
					JOINT RightToeBase
					{
						OFFSET -0.21516 -0.59115 1.68050
						CHANNELS 3 Zrotation Yrotation Xrotation
						End Site
						{
							OFFSET -0.00000 -0.00000 0.89604
						}
					}
				}
			}
		}
	}
	JOINT LowerBack
	{
		OFFSET 0 0 0
		CHANNELS 3 Zrotation Yrotation Xrotation
		JOINT Spine
		{
			OFFSET 0.06382 1.72312 -0.19613
			CHANNELS 3 Zrotation Yrotation Xrotation
			JOINT Spine1
			{
				OFFSET -0.00055 1.73507 0.23859
				CHANNELS 3 Zrotation Yrotation Xrotation
				JOINT Neck
				{
					OFFSET 0 0 0
					CHANNELS 3 Zrotation Yrotation Xrotation
					JOINT Neck1
					{
						OFFSET 0.03638 1.65562 0.09633
						CHANNELS 3 Zrotation Yrotation Xrotation
						JOINT Head
						{
							OFFSET 0.06388 1.62807 -0.32386
							CHANNELS 3 Zrotation Yrotation Xrotation
							End Site
							{
								OFFSET 0.00995 1.67644 -0.12021
							}
						}
					}
				}
				JOINT LeftShoulder
				{
					OFFSET 0 0 0
					CHANNELS 3 Zrotation Yrotation Xrotation
					JOINT LeftArm
					{
						OFFSET 3.09648 1.42991 0.28122
						CHANNELS 3 Zrotation Yrotation Xrotation
						JOINT LeftForeArm
						{
							OFFSET 5.11878 -0.00000 -0.00000
							CHANNELS 3 Zrotation Yrotation Xrotation
							JOINT LeftHand
							{
								OFFSET 3.59971 -0.00000 0.00000
								CHANNELS 3 Zrotation Yrotation Xrotation
								JOINT LeftFingerBase
								{
									OFFSET 0 0 0
									CHANNELS 3 Zrotation Yrotation Xrotation
									JOINT LeftHandIndex1
									{
										OFFSET 0.62877 -0.00000 0.00000
										CHANNELS 3 Zrotation Yrotation Xrotation
										End Site
										{
											OFFSET 0.50693 -0.00000 0.00000
										}
									}
								}
								JOINT LThumb
								{
									OFFSET 0 0 0
									CHANNELS 3 Zrotation Yrotation Xrotation
									End Site
									{
										OFFSET 0.51467 -0.00000 0.51467
									}
								}
							}
						}
					}
				}
				JOINT RightShoulder
				{
					OFFSET 0 0 0
					CHANNELS 3 Zrotation Yrotation Xrotation
					JOINT RightArm
					{
						OFFSET -3.33565 1.14597 0.05047
						CHANNELS 3 Zrotation Yrotation Xrotation
						JOINT RightForeArm
						{
							OFFSET -5.49020 -0.00000 0.00000
							CHANNELS 3 Zrotation Yrotation Xrotation
							JOINT RightHand
							{
								OFFSET -3.20659 -0.00000 -0.00000
								CHANNELS 3 Zrotation Yrotation Xrotation
								JOINT RightFingerBase
								{
									OFFSET 0 0 0
									CHANNELS 3 Zrotation Yrotation Xrotation
									JOINT RightHandIndex1
									{
										OFFSET -0.69188 -0.00000 0.00000
										CHANNELS 3 Zrotation Yrotation Xrotation
										End Site
										{
											OFFSET -0.55781 -0.00000 0.00000
										}
									}
								}
								JOINT RThumb
								{
									OFFSET 0 0 0
									CHANNELS 3 Zrotation Yrotation Xrotation
									End Site
									{
										OFFSET -0.56633 -0.00000 0.56633
									}
								}
							}
						}
					}
				}
			}
		}
	}
}
MOTION
Frames: 7
Frame Time: .0083333
-0.5414 17.6091 7.9725 -6.6920 -3.0235 7.6015 0.0000 0.0000 0.0000 -19.3950 -32.0745 19.8549 0.0265 -1.0512 -2.8898 -4.5321 36.9000 -30.0590 0.0007 0.1730 0.4753 0.0000 0.0000 0.0000 26.8762 22.1479 7.0803 -0.0223 -0.9637 2.6489 0.2188 -15.1216 -18.9849 -0.0020 -0.2884 0.7923 5.8415 0.9368 2.4736 -0.2633 1.7475 -9.8772 -3.7683 0.2721 -11.8680 -2.1873 -3.5480 -10.2665 7.6944 -6.3852 22.3717 2.2898 -2.4134 9.0176 0.0000 -0.0000 0.0000 -37.4197 -8.4832 61.9394 154.5342 -36.6763 -111.4334 -0.0000 -0.0000 6.4979 26.9890 -27.2494 -13.1259 -7.1250 0.0000 -0.0000 -1.8918 -0.0322 1.8939 0.0000 -0.0000 0.0000 55.3795 1.1269 56.0992 -153.3260 37.8665 -110.7017 0.0000 0.0000 23.6300 5.4680 -24.0307 -2.2324 7.1250 -0.0000 -0.0000 34.2911 -50.6235 -5.2932
-0.5407 17.6086 7.9443 -6.7231 -2.8365 7.5060 0.0000 0.0000 0.0000 -19.3439 -32.1912 19.8553 0.0266 -1.0530 -2.8947 -4.5868 36.9517 -29.7638 0.0001 0.0648 0.1781 0.0000 0.0000 0.0000 26.9075 22.0753 7.0347 -0.0229 -0.9762 2.6835 0.2333 -15.2217 -18.9671 -0.0023 -0.3091 0.8492 5.7670 0.8686 2.6455 -0.2562 1.6571 -9.7519 -3.7109 0.2395 -11.8385 -2.0915 -3.5091 -9.9883 7.7048 -6.3109 21.9162 2.2857 -2.3883 8.8019 0.0000 0.0000 0.0000 -38.4682 -13.3050 64.4933 153.1330 -38.0521 -110.5829 -0.0000 -0.0000 6.2494 26.0525 -25.3836 -11.8360 -7.1250 0.0000 -0.0000 -2.1776 2.1567 2.0957 0.0000 0.0000 0.0000 56.0785 5.2671 58.6595 -151.0245 39.9989 -109.2551 0.0000 0.0000 24.0023 6.3652 -24.9313 -2.6922 7.1250 -0.0000 -0.0000 35.6830 -51.2265 -6.1389
-0.5390 17.6089 7.9171 -6.7711 -2.6778 7.4481 0.0000 0.0000 0.0000 -19.2820 -32.3475 19.8549 0.0268 -1.0573 -2.9065 -4.6454 37.0381 -29.5549 0.0000 -0.0091 -0.0250 0.0000 0.0000 0.0000 26.9503 22.0571 6.9729 -0.0234 -0.9869 2.7128 0.2524 -15.3509 -18.9400 -0.0023 -0.3128 0.8595 5.7361 0.8082 2.8278 -0.2540 1.5816 -9.6405 -3.6852 0.2085 -11.8297 -2.0213 -3.4929 -9.7718 7.7141 -6.2646 21.4753 2.2817 -2.3769 8.6066 0.0000 0.0000 0.0000 -39.7548 -18.0505 66.7270 151.6055 -39.4769 -109.6264 -0.0000 -0.0000 6.1328 25.2447 -23.1541 -10.5036 -7.1250 0.0000 -0.0000 -2.3824 4.6933 2.1814 0.0000 0.0000 0.0000 56.9372 9.3532 60.8880 -148.3032 42.3042 -107.4637 0.0000 0.0000 24.2705 7.5450 -25.8811 -3.3089 7.1250 -0.0000 -0.0000 37.3883 -51.8071 -7.0944
-0.5360 17.6100 7.8913 -6.8140 -2.5660 7.4283 0.0000 0.0000 0.0000 -19.2367 -32.5230 19.8472 0.0270 -1.0617 -2.9186 -4.6997 37.1420 -29.4485 0.0000 -0.0367 -0.1007 0.0000 0.0000 0.0000 26.9797 22.0966 6.9103 -0.0235 -0.9889 2.7182 0.2748 -15.4991 -18.9052 -0.0024 -0.3161 0.8687 5.7361 0.7668 3.0016 -0.2652 1.5329 -9.5341 -3.6943 0.1868 -11.8182 -1.9898 -3.5034 -9.6064 7.7287 -6.2481 21.0129 2.2820 -2.3816 8.4178 0.0000 0.0000 0.0000 -41.2712 -22.6337 68.6093 149.9226 -40.9597 -108.5397 -0.0000 -0.0000 6.4602 24.9676 -20.7792 -9.3798 -7.1250 0.0000 -0.0000 -2.2858 7.2823 1.9793 0.0000 0.0000 0.0000 57.9598 13.3543 62.8255 -145.1075 44.7352 -105.2624 0.0000 0.0000 24.3414 8.9110 -26.9058 -4.0585 7.1250 -0.0000 -0.0000 39.3465 -52.3959 -8.1989
-0.5318 17.6121 7.8667 -6.8473 -2.5136 7.4454 0.0000 0.0000 0.0000 -19.1921 -32.6846 19.8036 0.0272 -1.0639 -2.9247 -4.7419 37.2394 -29.4290 0.0000 -0.0197 -0.0542 0.0000 0.0000 0.0000 26.9865 22.1878 6.8406 -0.0232 -0.9830 2.7021 0.2979 -15.6440 -18.8574 -0.0025 -0.3236 0.8892 5.7619 0.7519 3.1666 -0.2878 1.5207 -9.4287 -3.7346 0.1799 -11.7980 -1.9988 -3.5360 -9.4936 7.7431 -6.2527 20.5218 2.2859 -2.3989 8.2327 0.0000 -0.0000 0.0000 -42.9886 -27.0020 70.1184 148.0859 -42.4786 -107.3172 -0.0000 -0.0000 7.2427 25.1546 -18.4319 -8.4453 -7.1250 0.0000 -0.0000 -1.9284 9.7756 1.5739 0.0000 -0.0000 0.0000 59.1346 17.2672 64.4876 -141.3582 47.2443 -102.5647 0.0000 0.0000 24.0864 10.2513 -27.7886 -4.8195 7.1250 -0.0000 -0.0000 41.2058 -52.8548 -9.2193
-0.5267 17.6148 7.8425 -6.8659 -2.5285 7.4935 0.0000 0.0000 0.0000 -19.1280 -32.7916 19.6922 0.0271 -1.0629 -2.9220 -4.7648 37.3005 -29.4516 0.0000 0.0306 0.0840 0.0000 0.0000 0.0000 26.9613 22.3207 6.7546 -0.0227 -0.9732 2.6750 0.3194 -15.7653 -18.7912 -0.0026 -0.3318 0.9117 5.8069 0.7688 3.3370 -0.3207 1.5529 -9.3254 -3.8028 0.1920 -11.7784 -2.0323 -3.5796 -9.4447 7.7412 -6.2647 20.0264 2.2871 -2.4216 8.0595 -0.0000 -0.0000 0.0000 -44.8565 -31.1082 71.2807 146.1385 -43.9818 -105.9832 -0.0000 -0.0000 8.3179 25.6280 -16.2709 -7.6551 -7.1250 0.0000 -0.0000 -1.4195 12.0463 1.0924 -0.0000 -0.0000 0.0000 60.4435 21.0373 65.9289 -136.9886 49.7562 -99.2906 0.0000 0.0000 23.5991 11.1943 -28.4319 -5.3827 7.1250 -0.0000 -0.0000 42.5480 -53.1831 -9.9975
-0.5207 17.6179 7.8181 -6.8715 -2.6161 7.5682 0.0000 0.0000 0.0000 -19.0374 -32.8356 19.5094 0.0270 -1.0601 -2.9141 -4.7727 37.3300 -29.4913 0.0003 0.1044 0.2869 0.0000 0.0000 0.0000 26.9024 22.4881 6.6420 -0.0223 -0.9635 2.6483 0.3380 -15.8498 -18.6979 -0.0026 -0.3324 0.9133 5.8738 0.8220 3.5322 -0.3646 1.6376 -9.2305 -3.9029 0.2260 -11.7775 -2.0637 -3.6246 -9.4644 7.7028 -6.2737 19.5564 2.2755 -2.4434 7.9070 0.0000 0.0000 0.0000 -46.8216 -34.9319 72.1651 144.1267 -45.4258 -104.5678 -0.0000 -0.0000 9.5135 26.2051 -14.4505 -7.0019 -7.1250 0.0000 -0.0000 -0.8787 13.9563 0.6409 0.0000 0.0000 0.0000 61.8781 24.6015 67.2039 -131.9424 52.1814 -95.3687 0.0000 0.0000 23.0638 11.5109 -28.7991 -5.6031 7.1250 -0.0000 -0.0000 43.1289 -53.4069 -10.4412
